<svg fill="#CACED7" xmlns="http://www.w3.org/2000/svg" xmlns:xlink="http://www.w3.org/1999/xlink" version="1.1" x="0px" y="0px" viewBox="0 0 100 100" style="enable-background:new 0 0 100 100;" xml:space="preserve"><path d="M67,35H51.185C47.66,31.898,43.053,30,38,30c-11.028,0-20,8.972-20,20s8.972,20,20,20c5.053,0,9.66-1.898,13.185-5H67  c8.271,0,15-6.729,15-15S75.271,35,67,35z M38,66c-8.822,0-16-7.178-16-16s7.178-16,16-16s16,7.178,16,16S46.822,66,38,66z M67,61  H54.686C56.775,57.841,58,54.063,58,50s-1.225-7.841-3.314-11H67c6.065,0,11,4.935,11,11S73.065,61,67,61z"></path></svg>